# xmcd CD database file
#
# Track frame offsets:
#	150
#	19861
#	28730
#	44010
#	58704
#	84020
#	102475
#	113658
#	129527
#	146569
#	162266
#	172926
#	204406
#	225893
#
# Disc length: 3204 seconds
#
# Revision: 0
# Processed by: cddbd v1.5.2PL0 Copyright (c) Steve Scherf et al.
# Submitted via: CDex 1.70beta2
#
DISCID=af0c820e
DTITLE=Chillout Jazz Lounge - In the City
DYEAR=2007
DGENRE=Jazz
TTITLE0=The Sunset Jazz Orchestra - In The City
TTITLE1=Steve Colby - Sweetheart Swing
TTITLE2=Ray Swaggs - Cool Swings
TTITLE3=Jean-Marc Levier - Walk on the light side
TTITLE4=Scot Irving - Last Call
TTITLE5=The Bossa Circuit - Meeting of the eyes
TTITLE6=Jimmy Klein - Cat in the hat
TTITLE7=Jean-Marc Levier - Moonlight and Melodies
TTITLE8=Alkaline - Blue Velvet
TTITLE9=Joshua Bloom - Self Discovery
TTITLE10=Ray Swaggs - Dark Corridors
TTITLE11=Pete Dunn - My Funny Velentine
TTITLE12=Red River Ensemble - On Call
TTITLE13=Jean-Marc Levier - Where do we go
EXTD=YEAR: 2007
EXTT0=
EXTT1=
EXTT2=
EXTT3=
EXTT4=
EXTT5=
EXTT6=
EXTT7=
EXTT8=
EXTT9=
EXTT10=
EXTT11=
EXTT12=
EXTT13=
PLAYORDER=
